<?xml version="1.0" encoding="utf-8"?>
<!-- Generator: Adobe Illustrator 19.2.0, SVG Export Plug-In . SVG Version: 6.00 Build 0)  -->
<svg version="1.1" id="Layer_1" xmlns="http://www.w3.org/2000/svg" xmlns:xlink="http://www.w3.org/1999/xlink" x="0px" y="0px"
	 viewBox="0 0 148 39.5" style="enable-background:new 0 0 148 39.5;" xml:space="preserve">
<style type="text/css">
	.st0{fill:#F47524;}
	.st1{fill:#CCCCCC;}
</style>
<path class="st0" d="M117.9,20.7c0.3-0.8,0.4-1.5,0.4-2c0-0.5-0.2-0.8-0.3-1.1c-0.2-0.3-0.5-0.4-0.8-0.5c-0.5,0-1,0.2-1.5,0.7
	c-0.5,0.5-0.9,1.2-1.3,2c-0.4,0.8-0.7,1.6-1,2.5c-0.3,0.9-0.4,1.7-0.5,2.5c-0.1,0.5-0.1,1-0.1,1.5c0,0.4,0,0.8,0,1.3
	c0,0.4,0.1,0.8,0.2,1.1c-0.2,0.1-0.5,0.3-0.8,0.4c-0.4,0.2-0.8,0.3-1.2,0.3c-0.4,0-0.8-0.1-1.1-0.3c-0.3-0.2-0.4-0.6-0.4-1.3
	c0-0.6,0-1.3,0.1-2.1c0-0.8,0.1-1.5,0.2-2.3c0.1-0.8,0.2-1.5,0.2-2.2c0.1-0.7,0.2-1.4,0.3-2.1c0.1-1.2,0.3-2.1,0.3-2.8
	c0.1-0.7,0.1-1.3,0.1-1.9c0-0.1,0.2-0.3,0.6-0.4c0.4-0.2,0.8-0.3,1.3-0.5c0.5-0.1,0.9-0.2,1.3-0.2c0.4,0,0.6,0.1,0.6,0.3
	c0,0.3-0.1,0.9-0.2,1.8c-0.1,0.9-0.3,1.8-0.5,2.8c0.2-0.5,0.5-1.1,0.9-1.6c0.4-0.6,0.8-1.1,1.2-1.6c0.5-0.5,1-0.9,1.5-1.2
	c0.6-0.3,1.1-0.4,1.8-0.4c0.5,0,0.9,0.2,1.2,0.6c0.3,0.3,0.5,0.7,0.7,1.1c0.2,0.4,0.3,0.8,0.3,1.2c0.1,0.4,0.1,0.7,0.1,0.8
	c0,0.4-0.2,0.8-0.4,1.2c-0.2,0.4-0.5,0.7-0.9,1.1c-0.3,0.3-0.7,0.6-1.1,0.9C118.6,20.5,118.3,20.7,117.9,20.7"/>
<path class="st0" d="M107.1,24c0.2,0,0.3,0.2,0.3,0.5c0,0.3-0.1,0.7-0.3,1.4c-0.2,0.6-0.5,1.2-1,1.8c-0.5,0.6-1,1.1-1.8,1.6
	c-0.7,0.5-1.6,0.7-2.6,0.7c-1.9,0-3.3-0.6-4.4-1.9c-1-1.3-1.5-2.9-1.5-5c0-1.4,0.2-2.8,0.6-4c0.4-1.3,1-2.3,1.7-3.2
	c0.7-0.9,1.5-1.6,2.4-2.2c0.9-0.5,1.9-0.8,2.9-0.8c1,0,1.8,0.4,2.5,1.1c0.7,0.7,1,1.7,1,3c0,0.9-0.2,1.7-0.6,2.6
	c-0.4,0.8-0.9,1.6-1.5,2.3c-0.6,0.7-1.3,1.2-2,1.6S101.7,24,101,24c-0.4,0-0.8-0.1-1.1-0.2c-0.3-0.1-0.6-0.3-0.8-0.5
	c0.1,1.5,0.4,2.6,1,3.2c0.6,0.6,1.4,0.9,2.3,0.9c0.6,0,1.2-0.1,1.7-0.4c0.5-0.3,0.9-0.6,1.3-0.9c0.3-0.3,0.6-0.7,0.8-1.1
	c0.2-0.4,0.4-0.6,0.4-0.8C106.8,24.1,106.9,24,107.1,24 M103.7,14.6c-0.2,0-0.5,0.2-0.9,0.5c-0.4,0.3-0.9,0.8-1.4,1.5
	c-0.5,0.6-1,1.4-1.4,2.3c-0.4,0.9-0.7,1.9-0.8,3c1.6-0.4,2.9-1,3.8-1.8c0.9-0.8,1.4-2,1.4-3.5c0-0.8-0.1-1.3-0.3-1.6
	C103.9,14.8,103.8,14.6,103.7,14.6z"/>
<path class="st0" d="M94.5,3.4c-0.1,1-0.1,2.1-0.3,3.3c-0.1,1.3-0.3,2.6-0.4,4.1c-0.1,1.5-0.3,3-0.4,4.6c-0.1,1.6-0.3,3.2-0.4,4.8
	c-0.1,1.6-0.2,2.9-0.1,3.9c0,1,0.1,1.8,0.2,2.5c0.1,0.6,0.3,1.2,0.4,1.5c0.2,0.4,0.4,0.7,0.7,1.1c-0.3,0.2-0.7,0.4-1,0.5
	c-0.3,0.1-0.6,0.2-0.8,0.2C92.2,30,91.9,30,91.7,30c-0.4,0-0.8-0.2-1-0.6c-0.3-0.4-0.5-0.9-0.7-1.5c-0.2-0.6-0.3-1.3-0.4-2.1
	c-0.1-0.8-0.1-1.5-0.1-2.3c0-0.8,0-1.7,0.1-2.8c0.1-1.1,0.1-2.2,0.2-3.4c0.1-1.2,0.1-2.4,0.2-3.8C90,12.3,90,11,90.1,9.7
	c0.1-1,0.1-1.9,0.2-2.7c0.1-0.7,0.1-1.3,0.1-1.9c0-0.6,0-0.9,0-1c0.2-0.2,0.4-0.4,0.6-0.5c0.2-0.1,0.5-0.2,0.7-0.3
	c0.3-0.1,0.5-0.1,0.8-0.2h0.8c0.2,0,0.4,0,0.7,0.1C94.1,3.2,94.3,3.3,94.5,3.4"/>
<path class="st0" d="M79.5,1.6C79.2,2.9,79,4.1,78.9,5c-0.2,0.9-0.3,1.8-0.4,2.5c-0.1,0.7-0.2,1.3-0.3,1.9c-0.1,0.6-0.2,1.1-0.3,1.7
	c-0.1,0.6-0.2,1.2-0.4,1.8c-0.1,0.7-0.3,1.5-0.5,2.4c-0.1,0.6-0.2,1.2-0.3,1.8c-0.1,0.6-0.2,1.2-0.3,1.8c0.3-0.7,0.8-1.4,1.2-2.1
	c0.5-0.7,1-1.4,1.6-1.9c0.6-0.6,1.2-1,2-1.3c0.7-0.3,1.5-0.5,2.2-0.4c1.1,0.1,1.9,0.6,2.5,1.3c0.6,0.7,1,1.5,1.2,2.5
	s0.3,1.9,0.3,2.9c0,1-0.1,1.9-0.2,2.7c-0.1,0.7-0.3,1.6-0.6,2.6c-0.3,1-0.8,1.9-1.3,2.8c-0.6,0.9-1.3,1.6-2.2,2.1s-1.9,0.8-3,0.6
	c-0.8-0.1-1.5-0.4-2-0.8c-0.5-0.4-1-0.9-1.3-1.4c-0.3-0.5-0.5-1-0.6-1.5c-0.1-0.5-0.1-0.8-0.1-1c0-0.2,0.1-0.4,0.3-0.7
	c0.2-0.3,0.4-0.5,0.6-0.7c0.2-0.2,0.5-0.4,0.7-0.5c0.2-0.1,0.4-0.2,0.6-0.1C78,25,78,25.7,78.1,26.2c0.1,0.5,0.3,0.9,0.5,1.2
	c0.3,0.3,0.6,0.5,1,0.6c0.5,0.1,1.1-0.1,1.5-0.6c0.5-0.5,0.9-1,1.3-1.8c0.4-0.7,0.7-1.5,1-2.3c0.3-0.8,0.4-1.6,0.5-2.3
	C84,20.5,84,20,84,19.4c0-0.6,0-1.1-0.1-1.7c-0.1-0.5-0.2-0.9-0.5-1.3c-0.2-0.3-0.5-0.5-0.9-0.6c-0.6-0.1-1.3,0.2-2.1,0.8
	c-0.8,0.6-1.5,1.5-2.2,2.6c-0.7,1.1-1.3,2.3-1.9,3.7c-0.5,1.4-0.9,2.9-1.1,4.4c0,0.4-0.1,0.7-0.1,1.1c0,0.3,0,0.6,0.1,0.8
	c-0.7,0.2-1.3,0.3-1.7,0.3c-0.2,0-0.4,0-0.6,0c-0.4,0-0.7-0.2-0.9-0.5c-0.2-0.3-0.3-0.8-0.3-1.5c0-0.3,0.1-1,0.2-2.1
	c0.1-1.2,0.3-2.5,0.5-4.2c0.2-1.6,0.4-3.4,0.7-5.3c0.2-1.9,0.5-3.7,0.7-5.5c0.2-1.8,0.4-3.3,0.6-4.8c0.2-1.4,0.3-2.4,0.4-3
	c0.3-0.3,0.6-0.5,0.9-0.7c0.3-0.2,0.6-0.3,0.9-0.5c0.3-0.1,0.7-0.2,1-0.2c0.3,0,0.5,0,0.7,0c0.2,0,0.4,0.1,0.6,0.1
	C79.2,1.4,79.3,1.5,79.5,1.6"/>
<path class="st0" d="M60.9,2.9c-0.1,1.3-0.1,2.4-0.1,3.3c0,0.9-0.1,1.7-0.1,2.4c0,0.7-0.1,1.3-0.1,1.8c0,0.5-0.1,1.1-0.1,1.6
	c0,0.5-0.1,1.1-0.1,1.8c-0.1,0.6-0.1,1.4-0.2,2.3c-0.1,0.6-0.1,1.1-0.1,1.7c0,0.6-0.1,1.2-0.1,1.8c0.2-0.7,0.5-1.4,0.9-2.1
	c0.4-0.7,0.8-1.4,1.3-2c0.5-0.6,1-1.1,1.7-1.5c0.6-0.4,1.3-0.6,2-0.6c1,0,1.8,0.3,2.5,0.9c0.6,0.6,1.1,1.3,1.4,2.2
	c0.3,0.8,0.5,1.7,0.6,2.7c0.1,0.9,0.1,1.8,0.1,2.5c0,0.7-0.1,1.5-0.3,2.5c-0.2,1-0.5,1.9-0.9,2.7c-0.4,0.9-1,1.6-1.8,2.2
	c-0.7,0.6-1.6,0.9-2.7,0.9c-0.8,0-1.4-0.2-2-0.5c-0.5-0.3-1-0.7-1.3-1.1c-0.3-0.4-0.6-0.9-0.7-1.3c-0.1-0.4-0.2-0.7-0.2-0.9
	c0-0.2,0.1-0.4,0.2-0.7c0.1-0.3,0.3-0.5,0.5-0.7c0.2-0.2,0.4-0.4,0.6-0.6C62,24,62.2,24,62.3,24c-0.1,0.9,0,1.6,0.2,2
	c0.2,0.5,0.4,0.8,0.6,1c0.3,0.3,0.6,0.4,1,0.4c0.5,0,1-0.2,1.4-0.7c0.4-0.5,0.7-1.1,1-1.8c0.3-0.7,0.5-1.5,0.6-2.3
	c0.1-0.8,0.2-1.6,0.2-2.2c0-0.5,0-1-0.1-1.6c-0.1-0.6-0.2-1.1-0.3-1.5c-0.1-0.5-0.3-0.9-0.6-1.1c-0.2-0.3-0.5-0.4-0.9-0.4
	c-0.6,0-1.2,0.3-1.9,1c-0.6,0.7-1.2,1.6-1.8,2.6c-0.5,1.1-1,2.3-1.3,3.7c-0.3,1.4-0.5,2.8-0.5,4.2c0,0.4,0,0.7,0.1,1
	c0,0.3,0.1,0.5,0.1,0.7c-0.6,0.3-1.2,0.4-1.5,0.5c-0.2,0.1-0.4,0.1-0.5,0c-0.4,0-0.7-0.1-0.9-0.3c-0.2-0.2-0.4-0.7-0.4-1.4
	c0-0.2,0-0.9,0-2s0-2.4,0-4c0-1.5,0-3.2,0-5c0-1.8,0-3.5,0-5.2c0-1.7,0-3.2,0-4.5c0-1.3,0-2.3,0.1-2.9c0.2-0.3,0.4-0.6,0.7-0.8
	c0.3-0.2,0.5-0.4,0.8-0.5C58.7,3,59,2.8,59.3,2.8c0.2-0.1,0.5-0.1,0.7-0.1c0.2,0,0.4,0,0.5,0C60.7,2.8,60.8,2.8,60.9,2.9"/>
<path class="st0" d="M53.6,14.3c0,0.4,0,1-0.1,1.7c-0.1,0.7-0.1,1.5-0.2,2.3c-0.1,0.8-0.2,1.6-0.2,2.5c-0.1,0.8-0.1,1.5-0.2,2.1
	c-0.1,0.6-0.1,1.2-0.2,1.9c-0.1,0.6-0.1,1.3-0.1,2c0,0.7,0,1.5,0,2.2c0,0.1-0.1,0.3-0.4,0.4c-0.3,0.1-0.6,0.2-0.9,0.3
	c-0.3,0.1-0.6,0.1-0.9,0.1c-0.3,0-0.5-0.1-0.5-0.2c-0.1-0.1-0.1-0.3-0.2-0.6c-0.1-0.3-0.1-0.7-0.2-1.1c-0.1-0.5-0.1-1.1-0.1-1.9
	c0-0.8,0-1.8,0-2.9c0.1-2.2,0.1-4,0-5.2c-0.1-1.2-0.1-2.1-0.2-2.8c0-0.2,0.2-0.3,0.6-0.5c0.4-0.2,0.9-0.3,1.4-0.5s1-0.2,1.5-0.2
	C53.3,14,53.6,14.1,53.6,14.3"/>
<path class="st0" d="M53.7,7.7C54.2,8,54.5,8.4,54.5,9c0,0.4-0.1,0.8-0.3,1.2c-0.2,0.4-0.5,0.7-0.7,1c-0.3,0.3-0.6,0.5-1,0.7
	c-0.4,0.2-0.7,0.3-1,0.3c-0.4,0-0.8-0.1-1-0.2c-0.3-0.1-0.5-0.3-0.6-0.5c-0.1-0.2-0.2-0.4-0.3-0.7c-0.1-0.2-0.1-0.5-0.1-0.7
	c0-0.3,0-0.6,0.1-0.9c0.1-0.3,0.2-0.6,0.4-0.9c0.2-0.3,0.5-0.5,0.9-0.7c0.4-0.2,0.9-0.3,1.5-0.3C52.7,7.2,53.2,7.4,53.7,7.7"/>
<path class="st0" d="M44.8,20.8c0.2-0.8,0.3-1.5,0.2-1.9c-0.1-0.5-0.2-0.8-0.4-1c-0.2-0.2-0.5-0.4-0.8-0.4c-0.5,0-0.9,0.3-1.4,0.8
	c-0.4,0.6-0.8,1.2-1.1,2c-0.3,0.8-0.6,1.6-0.8,2.5c-0.2,0.9-0.3,1.7-0.3,2.4c0,0.5,0,1,0,1.5c0,0.4,0.1,0.8,0.1,1.3
	c0.1,0.4,0.2,0.8,0.3,1c-0.2,0.1-0.4,0.3-0.8,0.5c-0.4,0.2-0.7,0.3-1.1,0.4c-0.4,0.1-0.7,0-1-0.2c-0.3-0.2-0.5-0.6-0.5-1.2
	c-0.1-0.6-0.1-1.3-0.1-2c0-0.7,0-1.5,0-2.2c0-0.7,0-1.5,0.1-2.2c0-0.7,0.1-1.4,0.1-2c0.1-1.2,0.1-2.1,0.1-2.7c0-0.6,0-1.3,0-1.9
	c0-0.1,0.2-0.3,0.5-0.5c0.4-0.2,0.8-0.4,1.2-0.5c0.4-0.2,0.9-0.3,1.2-0.3c0.4,0,0.6,0.1,0.6,0.2c0,0.3,0,0.9-0.1,1.8
	c-0.1,0.9-0.2,1.8-0.3,2.7c0.2-0.5,0.4-1.1,0.7-1.7c0.3-0.6,0.7-1.1,1.1-1.7c0.4-0.5,0.9-0.9,1.4-1.3c0.5-0.3,1.1-0.5,1.7-0.5
	c0.5,0,0.9,0.1,1.2,0.4c0.3,0.3,0.6,0.6,0.7,1c0.2,0.4,0.3,0.8,0.4,1.1c0.1,0.4,0.1,0.6,0.1,0.8c0,0.4-0.1,0.8-0.3,1.1
	c-0.2,0.4-0.5,0.8-0.7,1.1c-0.3,0.3-0.6,0.7-1,0.9C45.4,20.5,45.1,20.7,44.8,20.8"/>
<path class="st0" d="M34.3,23.9c0.2,0,0.3,0.2,0.3,0.5c0,0.3-0.1,0.7-0.3,1.4c-0.2,0.6-0.5,1.2-1,1.8c-0.5,0.6-1,1.1-1.8,1.6
	c-0.7,0.5-1.6,0.7-2.6,0.7c-1.5,0-2.7-0.4-3.6-1.2c-1-0.8-1.7-1.9-2.1-3.4c-0.3-1.2-0.4-2.6-0.3-4c0.1-1.4,0.5-2.7,1.1-3.9
	c0.6-1.2,1.5-2.2,2.6-3.1c1.1-0.8,2.4-1.3,4-1.4c0.8,0,1.5,0.1,2,0.4c0.5,0.3,1,0.7,1.3,1.3c0.3,0.5,0.5,1.1,0.5,1.7
	c0.1,0.6,0,1.2-0.2,1.7c-0.2,0.5-0.4,1-0.8,1.4c-0.4,0.4-0.8,0.6-1.4,0.6c-0.6,0.1-1,0-1.4-0.2c-0.4-0.2-0.6-0.4-0.8-0.7
	c-0.2-0.3-0.3-0.6-0.4-0.9c-0.1-0.3-0.1-0.6,0-0.8c0.1-0.3,0.2-0.7,0.4-1c0.2-0.3,0.4-0.5,0.7-0.8c0.3-0.3,0.7-0.5,1.2-0.6
	c-0.1-0.1-0.2-0.1-0.2-0.1c-0.1,0-0.2,0-0.2,0c-0.1,0-0.2,0-0.2,0c-0.4,0-0.9,0.1-1.5,0.4c-0.6,0.3-1.1,0.8-1.6,1.4
	c-0.5,0.6-0.9,1.5-1.3,2.5c-0.3,1-0.5,2.2-0.5,3.6c0,0.6,0.1,1.2,0.2,1.8c0.1,0.6,0.3,1.1,0.6,1.6c0.3,0.5,0.6,0.8,1,1.1
	c0.4,0.3,0.9,0.4,1.5,0.4c0.6,0,1.2-0.1,1.7-0.4c0.5-0.3,0.9-0.6,1.3-1c0.3-0.4,0.6-0.8,0.8-1.1c0.2-0.4,0.3-0.7,0.4-0.8
	C33.9,24,34.1,23.9,34.3,23.9"/>
<path class="st0" d="M17.2,11.4c0.1-0.3,0.3-0.8,0.4-1.5c0.1-0.6,0.1-1.2-0.1-1.9c-0.2-0.6-0.7-1.2-1.4-1.6
	c-0.7-0.5-1.9-0.7-3.6-0.7c-0.9,0-1.9,0.1-2.7,0.4C8.9,6.5,8.1,6.9,7.4,7.3c-0.7,0.5-1.2,1-1.6,1.6c-0.4,0.6-0.6,1.2-0.6,1.8
	c0,0.6,0.2,1.1,0.6,1.6c0.4,0.5,1,1,1.7,1.4c0.7,0.4,1.5,0.9,2.5,1.3c0.9,0.4,1.9,0.9,2.9,1.3c1,0.4,2,0.9,2.9,1.4
	c1,0.5,1.8,1.1,2.6,1.7c0.8,0.6,1.4,1.4,1.8,2.2c0.5,0.8,0.7,1.7,0.7,2.8c0,1.1-0.2,2.2-0.6,3.2c-0.4,1-1,1.9-1.8,2.7
	c-0.8,0.8-1.7,1.4-2.8,1.9C14.6,32.8,13.4,33,12,33c-1.2,0-2.4-0.2-3.5-0.6c-1.1-0.4-2.1-0.9-2.9-1.6c-0.8-0.6-1.5-1.4-2-2.1
	c-0.5-0.8-0.7-1.5-0.7-2.3c0-0.8,0.2-1.5,0.5-2.1s0.8-1,1.4-1.4c0.5-0.3,1.1-0.6,1.7-0.7c0.6-0.1,1.1-0.2,1.6-0.1
	c-0.5,0.4-0.7,1-0.7,2c0,1,0.1,1.9,0.5,2.9c0.4,1,0.9,1.8,1.7,2.6c0.8,0.8,1.7,1.1,2.8,1.1c0.7,0,1.4-0.2,1.9-0.5
	c0.5-0.3,1-0.8,1.3-1.3c0.3-0.5,0.6-1.1,0.7-1.8c0.2-0.6,0.2-1.3,0.2-1.9c0-0.9-0.2-1.6-0.5-2.2c-0.3-0.6-0.8-1.1-1.3-1.6
	c-0.6-0.4-1.2-0.8-1.9-1.1c-0.7-0.3-1.4-0.6-2.2-0.9c-0.7-0.3-1.5-0.6-2.4-1c-0.9-0.4-1.8-1-2.7-1.7c-0.9-0.7-1.6-1.5-2.2-2.5
	S2.3,12,2.3,10.6c0-1,0.3-1.9,0.8-2.9c0.5-1,1.2-1.9,2.2-2.7c0.9-0.8,2.1-1.5,3.4-2c1.3-0.5,2.8-0.8,4.5-0.8c1.6,0,3,0.1,4,0.4
	c1,0.3,1.8,0.7,2.4,1.1c0.6,0.5,0.9,1,1.1,1.5C20.9,5.8,21,6.3,21,6.8s-0.1,1-0.4,1.5c-0.3,0.5-0.6,1-1,1.4
	c-0.4,0.4-0.8,0.8-1.3,1.1C17.8,11,17.5,11.3,17.2,11.4"/>
<path class="st1" d="M123.1,25.4c0.5,0,0.9,0.1,1.3,0.4c0.3,0.3,0.5,0.7,0.5,1.3c0,0.3-0.1,0.7-0.2,1c-0.1,0.4-0.3,0.7-0.6,1
	c-0.3,0.3-0.6,0.6-1.1,0.8s-0.7,0.3-1.3,0.3c-0.5,0-1.2-0.2-1.5-0.5s-0.4-0.7-0.4-1.2c0-0.8,0.3-1.5,1-2.1
	C121.4,25.7,122.2,25.4,123.1,25.4z"/>
<path class="st1" d="M125.6,37.9c-0.4,0-0.7-0.1-1-0.3s-0.5-0.5-0.7-0.8c-0.2-0.3-0.3-0.6-0.4-1c-0.1-0.3-0.2-0.6-0.2-0.9
	c0.2,0.2,0.5,0.3,0.7,0.4c0.3,0.1,0.5,0.1,0.7,0.2c0.2,0.1,0.5,0.1,0.7,0.1c0.5,0,1-0.2,1.4-0.6c0.4-0.4,0.7-0.9,1-1.6
	c0.3-0.6,0.5-1.4,0.6-2.2s0.3-1.6,0.3-2.4c0.1-0.8,0.1-1.5,0.1-2.3c0-0.7,0-1.3,0-1.8c0-2.6,0-4.9-0.2-6.7c-0.1-1.8-0.4-3-0.8-3.5
	c0.4-0.2,0.7-0.4,0.9-0.5c0.3-0.1,0.6-0.2,1.2-0.2c0.7,0,1.2,0.2,1.5,0.5c0.3,0.3,0.5,0.8,0.5,1.5c0.1,0.6,0.1,1.4,0.2,2.4
	c0.1,1,0.1,2.3,0,3.8c-0.1,1.8-0.2,3.3-0.2,4.5c-0.1,1.3-0.2,2.4-0.3,3.5c-0.1,1.2-0.4,2.4-0.7,3.4c-0.4,1-0.8,1.8-1.4,2.5
	c-0.5,0.6-1.1,1-1.8,1.4C127.2,37.7,126.4,37.9,125.6,37.9z"/>
<path class="st1" d="M128.7,6.9c0.1-0.1,0.3-0.3,0.5-0.4c0.2-0.1,0.4-0.3,0.6-0.3s0.5-0.1,0.8,0c0.3,0.1,0.6,0.2,0.8,0.5
	c0.3,0.3,0.5,0.6,0.5,1s0,0.8,0,1.3c-0.1,0.4-0.2,0.9-0.4,1.3c-0.2,0.4-0.4,0.8-0.7,1c-0.7,0.8-1.5,0.8-2.3,0.1
	c-0.2-0.2-0.4-0.5-0.5-0.8c-0.1-0.3-0.2-0.7-0.2-1.1c0-0.4,0-0.8,0.2-1.2C128.1,7.7,128.4,7.3,128.7,6.9z"/>
<path class="st1" d="M141.8,21.9c0.6,0.2,1.2,0.4,1.7,0.6c0.5,0.2,1,0.4,1.4,0.7c0.4,0.3,0.7,0.6,1,1c0.2,0.4,0.4,0.8,0.4,1.4
	c0,0.6-0.1,1.3-0.4,1.8c-0.3,0.6-0.7,1.1-1.2,1.5c-0.5,0.4-1.2,0.8-2,1c-0.8,0.3-1.6,0.4-2.6,0.4c-1.1,0-1.9-0.1-2.5-0.3
	c-0.6-0.2-1.1-0.4-1.5-0.7c-0.4-0.3-0.6-0.5-0.7-0.8c-0.1-0.3-0.2-0.5-0.2-0.6c0-0.3,0.1-0.7,0.2-1.1c0.1-0.4,0.4-0.8,0.8-1.3
	c0.2-0.2,0.3-0.4,0.5-0.5c0.4-0.3,0.8-0.5,1.1-0.6c-0.1,0.6,0,1.1,0.2,1.5s0.5,0.7,0.8,0.9c0.3,0.2,0.7,0.4,1.1,0.4
	c0.4,0.1,0.8,0.1,1.2,0.1c0.4,0,0.8-0.1,1.2-0.2c0.4-0.1,0.7-0.2,1.1-0.4c0.3-0.2,0.6-0.4,0.8-0.6c0.2-0.2,0.3-0.5,0.3-0.7
	c0-0.3-0.1-0.5-0.4-0.7c-0.2-0.2-0.5-0.3-0.9-0.5c-0.4-0.1-0.8-0.2-1.2-0.3s-0.8-0.1-1.2-0.2c-0.4-0.1-0.9-0.2-1.5-0.3
	c-0.6-0.1-1.3-0.4-1.9-0.7c-0.6-0.3-1.1-0.8-1.6-1.3c-0.4-0.5-0.7-1.3-0.7-2.1c0-1,0.3-1.9,0.8-2.7c0.5-0.8,1.2-1.4,1.9-1.9
	c0.8-0.5,1.6-0.9,2.4-1.2c0.9-0.3,1.6-0.4,2.3-0.4c0.4,0,0.7,0,1.1,0.1s0.8,0.3,1.1,0.5c0.4,0.2,0.6,0.5,0.9,0.9s0.3,0.9,0.3,1.5
	c0,0.6,0,1.1-0.1,1.4s-0.2,0.6-0.4,0.8s-0.4,0.3-0.6,0.4c-0.2,0.1-0.5,0.1-0.8,0.1c-0.2,0-0.4,0-0.6-0.1c-0.2-0.1-0.3-0.1-0.5-0.2
	c-0.2-0.1-0.4-0.1-0.5-0.3c0.3-0.3,0.5-0.6,0.6-0.9c0.1-0.3,0.2-0.7,0.2-1.1c0-0.4-0.1-0.7-0.3-1c-0.2-0.3-0.5-0.4-1-0.4
	c-0.5,0-1,0.1-1.4,0.3c-0.4,0.2-0.8,0.4-1.2,0.8c-0.3,0.3-0.6,0.7-0.8,1.1c-0.2,0.4-0.3,0.9-0.3,1.4c0,0.7,0.3,1.4,0.8,2.1
	C139.8,20.9,140.6,21.4,141.8,21.9z"/>
</svg>
